<svg
              xmlns="http://www.w3.org/2000/svg"
              viewBox="0 0 1000 1000"
              enableBackground="new 0 0 1000 1000"
              fill="white"
            >
              <g>
                <path d="M500,990C229.8,990,10,770.2,10,500C10,229.8,229.8,10,500,10c270.2,0,490,219.8,490,490C990,770.2,770.2,990,500,990L500,990z M500,56.5C255.4,56.5,56.5,255.5,56.5,500c0,244.5,198.9,443.4,443.5,443.4c244.6,0,443.5-198.9,443.5-443.4C943.5,255.5,744.5,56.5,500,56.5L500,56.5z" />
                <path d="M766.4,388c4.7-7,9.9-14.7,12.4-18.9c8.5-13.9-2.8-30.8-4.1-32.7c-0.6-0.9-1.4-1.7-2.3-2.4c-0.6-0.5-15.8-12.1-32.5-20.3c-5-2.4-10.1-3.7-15-3.7c-14.6,0-22.7,10.4-23.7,11.8l-12.8,18.4L766.4,388z" />
                <path d="M545.4,568.7l-14.8,77.6c-0.8,4.3,1,8.7,4.6,11.2c1.9,1.2,4,1.9,6.1,1.9c2.1,0,4.1-0.6,5.9-1.8L615,614c0.7-0.4,1.1-1.2,1.6-1.7c0,0,0,0,0.1,0L545.4,568.7z" />
                <path d="M676.1,358.7L555.7,549.3l73.6,44.9l124.8-187.9L676.1,358.7z" />
                <path d="M635.5,632.7l-136.4,73.2l31.2-168.4L678,308.6v-16.4c0-22.2-18.1-40.3-40.3-40.3H295.1c-22.2,0-40.3,18.1-40.3,40.3v415.7c0,22.2,18.1,40.3,40.3,40.3h342.7c22.2,0,40.3-18.1,40.3-40.3V569.9L635.5,632.7z M316.6,347h275c6.1,0,11,10.6,11,16.7c0,6.1-4.9,16.7-11,16.7h-275c-6.1,0-11-10.6-11-16.7S310.5,347,316.6,347z M316.6,456h196.7c6.1,0,11,10.6,11,16.7c0,6.1-4.9,16.7-11,16.7H316.6c-6.1,0-11-10.6-11-16.7C305.6,466.6,310.5,456,316.6,456z M434.9,599.1H316.6c-6.1,0-11-10.6-11-16.7c0-6.1,4.9-16.7,11-16.7h118.3c6.1,0,11,10.6,11,16.7C445.9,588.5,441,599.1,434.9,599.1z" />
              </g>
            </svg>