<svg
              xmlns="http://www.w3.org/2000/svg"
              viewBox="0 0 1000 1000"
              enableBackground="new 0 0 1000 1000"
              fill="white"
            >
              <g>
                <path d="M96.4,85.9L68.2,114l65.6,114.1l83.2,14l152.2,152l35.9-35.9l-152.2-152L239,123.2L124.6,57.7L96.4,85.9z" />
                <path d="M553.7,696.2l44.4,44.3l45,2l26.5,27.3l3.8,44.2l165.5,161.7c10.4,10.4,61.6-8.5,100.7-47.5s58-90.1,47.6-100.5l-162-165.2l-44.3-3.8l-27.4-26.5l-2-44.9L707.1,543L553.7,696.2z" />
                <path d="M958.8,155.2c22.5,67.9,6.7,145.5-47.3,199.5c-76.4,76.3-200.2,76.3-276.5,0c-76.4-76.2-76.4-199.8,0-276.1c54-53.9,131.8-69.7,199.8-47.2L711.1,154.7l124.1,123.9L958.8,155.2z" />
                <path d="M28.4,910.5l24.9,24.8l24.9,24.8c24.6,24.6,65,24.5,89.5,0l468.1-467.3l-139.3-139L28.4,821.1C3.9,845.5,3.8,885.9,28.4,910.5L28.4,910.5z" />
              </g>
            </svg>